<svg version="1.1" id="Layer_1" xmlns="http://www.w3.org/2000/svg" xmlns:xlink="http://www.w3.org/1999/xlink" x="0px" y="0px"
	 width="100%" viewBox="0 0 1080 1080" enable-background="new 0 0 1080 1080" xml:space="preserve">
<path fill="#171717" opacity="1.000000" stroke="none" 
	d="
M574.000000,1081.000000 
	C384.188507,1081.000000 194.877029,1080.988403 5.565589,1081.086304 
	C1.937400,1081.088257 0.895591,1080.466797 0.896805,1076.566528 
	C1.007938,719.607727 1.009704,362.648956 0.881976,5.690213 
	C0.880481,1.509966 1.878783,0.896587 5.808765,0.897800 
	C362.600891,1.007918 719.393005,1.007826 1076.185181,0.898668 
	C1080.102539,0.897469 1081.120361,1.490921 1081.118774,5.684150 
	C1080.990234,362.476257 1080.989380,719.268372 1081.123657,1076.060547 
	C1081.125366,1080.452637 1080.011475,1081.102539 1075.940430,1081.099731 
	C908.793701,1080.983032 741.646851,1081.000000 574.000000,1081.000000 
z"/>
<path fill="#FF4E00" opacity="1.000000" stroke="none" 
	d="
M499.820679,527.644897 
	C512.807190,527.228699 525.412781,526.424438 538.030090,525.898743 
	C555.141541,525.185913 572.261902,524.686401 589.868835,524.115601 
	C590.616882,523.932556 590.874573,523.729309 591.534912,523.243042 
	C593.815430,521.505127 596.056946,521.763062 598.188538,521.750000 
	C612.685974,521.661194 627.183838,521.665955 641.681274,521.746765 
	C643.978149,521.759521 646.395325,521.494385 648.793335,523.407104 
	C663.813660,523.585632 678.417847,523.503296 693.487305,523.421631 
	C701.996338,531.699646 713.043701,530.784058 723.081482,532.764587 
	C734.732361,535.063416 746.267456,537.536865 756.176697,544.548157 
	C769.911926,554.266541 777.400818,568.292480 781.796631,583.943481 
	C788.479248,607.737122 789.140991,632.068726 787.520264,656.644958 
	C786.293335,675.250916 784.105835,693.702942 781.117432,712.069275 
	C777.697449,733.087769 773.514771,753.988525 767.658813,774.459717 
	C761.146729,797.224731 749.064209,817.439026 737.041931,837.611694 
	C732.608276,845.051147 728.005493,852.368896 721.189087,858.518921 
	C686.762512,887.541016 647.388855,904.773804 603.254456,909.874695 
	C559.608459,914.919250 515.912598,914.485718 472.710114,904.901672 
	C461.838013,902.489807 451.152679,899.382324 440.523071,894.915588 
	C438.212402,891.310181 434.814758,889.418640 431.684540,887.281067 
	C417.804199,877.802490 403.937164,868.260437 391.912720,856.451050 
	C373.160309,838.033997 358.079102,816.777527 344.544830,794.316162 
	C329.632782,769.568237 319.979797,742.726929 311.908478,715.181946 
	C306.106750,695.382324 300.580658,675.521057 296.462311,655.289368 
	C293.968048,643.036255 292.004456,630.731812 292.864746,618.169373 
	C293.658813,606.574341 296.446686,595.522034 302.356049,585.397156 
	C310.138824,572.062500 322.229309,564.929138 336.752411,560.874878 
	C352.456451,556.490967 368.503967,553.428406 384.030090,548.385315 
	C388.364746,546.977356 392.338135,545.033081 395.663635,541.266418 
	C410.640747,537.892334 425.519379,536.217712 440.748474,534.006897 
	C444.609406,530.181458 449.392487,530.871643 453.698730,530.400452 
	C467.321014,528.910156 480.929596,527.190979 494.643616,526.705383 
	C496.266449,526.647888 497.969879,526.277466 499.820679,527.644897 
z"/>
<path fill="#FF4E00" opacity="1.000000" stroke="none" 
	d="
M594.817993,178.959045 
	C601.421265,171.178726 610.588867,170.843903 619.197876,170.146393 
	C662.962219,166.600555 703.614990,178.129898 742.207886,197.516571 
	C786.838745,219.936340 821.380981,252.856705 842.369751,298.755035 
	C854.208801,324.644653 859.867432,351.715515 855.004395,380.294189 
	C854.447937,383.564545 853.656677,386.794983 852.921936,390.435791 
	C854.128479,398.142853 850.354370,404.056824 846.982300,409.804504 
	C838.753540,423.830383 827.740601,435.003937 812.610352,441.811432 
	C800.757751,447.144257 788.348328,446.418701 775.919800,445.933441 
	C773.889038,445.854156 772.509460,443.942291 770.225952,443.209961 
	C733.599243,433.515533 703.818481,412.615387 675.645996,389.025726 
	C664.469788,379.667603 655.207825,368.630035 649.232361,354.759918 
	C645.709900,350.632812 644.833801,346.021667 644.825317,341.075928 
	C644.811279,332.930725 645.104065,324.880859 646.570374,316.779999 
	C649.074585,302.945160 655.756226,291.636932 665.488037,281.867920 
	C674.350525,272.971558 674.469055,270.910004 667.631287,260.090515 
	C656.493530,242.467041 641.323914,228.614426 625.871033,215.021530 
	C617.144531,207.345428 607.665894,200.526382 599.569397,192.134171 
	C596.157349,188.597488 593.306091,184.725021 594.817993,178.959045 
z"/>
<path fill="#FE4E00" opacity="1.000000" stroke="none" 
	d="
M445.727722,270.220154 
	C456.562531,261.778961 466.891907,253.374222 478.252289,246.383591 
	C485.484985,241.932922 492.797882,237.635818 501.183716,235.639450 
	C510.204010,233.492081 515.808044,237.373627 516.951233,246.592697 
	C517.798340,253.424561 516.039917,259.781891 513.361084,265.970795 
	C508.309021,277.642578 501.440704,288.262634 494.143860,298.591217 
	C475.611298,324.823669 457.634186,351.512268 433.821136,373.506378 
	C409.518280,395.952911 383.053741,414.917938 351.193359,425.301666 
	C344.854370,427.367645 338.353729,428.712891 331.418884,429.992249 
	C325.735413,433.692078 319.704712,433.431274 313.793182,433.029602 
	C298.313477,431.977905 283.653137,428.097687 270.618530,419.315186 
	C263.585938,414.576782 256.722198,409.614716 251.775757,402.500549 
	C250.799377,401.096252 249.858002,399.781006 250.137787,397.561890 
	C233.761887,372.610321 232.079010,345.708771 238.642670,318.063599 
	C250.322388,268.870422 278.289581,232.213394 323.621124,208.739136 
	C358.846588,190.498184 395.674286,177.851074 435.120392,173.388306 
	C453.503174,171.308548 471.975067,170.709869 490.346375,174.020828 
	C493.309540,174.554855 496.195374,175.309616 498.802063,177.540405 
	C501.428741,181.688049 499.788849,184.685501 497.058807,187.573868 
	C489.295319,195.787628 479.529175,201.245926 469.980469,206.881973 
	C453.409821,216.662659 437.019653,226.742035 420.439178,236.503784 
	C419.422668,237.102249 418.691223,238.024323 417.690552,239.184601 
	C415.664520,240.691620 413.803284,241.806305 411.856171,243.414902 
	C408.099335,245.741714 405.536499,248.858398 403.063049,251.932404 
	C400.046234,255.681747 401.113007,259.791382 403.253387,263.634918 
	C407.296875,270.895752 411.878265,277.844635 415.128662,285.557800 
	C421.451935,300.562622 424.238556,316.441315 427.101746,332.314972 
	C428.017181,337.390259 428.983734,342.467682 430.543304,347.381195 
	C432.392761,353.208069 435.571960,353.738525 439.822662,348.741272 
	C445.725159,339.003571 447.212524,328.443268 447.602722,317.843292 
	C448.126190,303.621155 448.398438,289.332214 444.985901,275.308228 
	C444.599396,273.719849 444.345398,272.020874 445.727722,270.220154 
z"/>
<path fill="#AC1411" opacity="1.000000" stroke="none" 
	d="
M395.685120,540.915894 
	C396.666840,544.818604 394.291107,546.507324 391.424774,547.878235 
	C384.463287,551.207642 377.011230,553.019775 369.591919,554.923157 
	C358.948608,557.653687 348.305145,560.384705 337.643188,563.041138 
	C312.782776,569.234924 300.088928,585.995483 295.975708,610.479980 
	C293.378754,625.938721 295.743500,641.012634 298.986053,656.017700 
	C306.487518,690.730652 315.546234,725.076538 329.021484,757.949280 
	C343.820038,794.050232 365.203247,826.159729 392.675629,853.987793 
	C404.067200,865.526855 417.427551,874.709534 430.762054,883.854858 
	C433.645477,885.832458 436.528076,887.831238 439.237091,890.034180 
	C440.476288,891.041992 442.731842,892.141663 440.381409,894.578247 
	C433.886017,894.169922 428.495483,891.092651 423.045135,888.292358 
	C406.297455,879.687561 390.182617,869.960632 374.424774,859.695557 
	C366.635895,854.621643 358.485321,851.074890 349.503418,848.781494 
	C334.513184,844.954041 319.697296,840.447632 305.155823,835.120544 
	C300.956299,833.582153 296.612152,832.238403 293.023071,828.795898 
	C293.354736,823.265381 297.495880,823.114258 301.294769,822.909729 
	C313.964447,822.227722 326.543976,823.237244 339.041962,825.357605 
	C340.658173,825.631775 342.274048,826.181458 343.890228,825.400574 
	C344.270844,823.987183 343.224365,823.239929 342.600189,822.308838 
	C332.790833,807.675720 321.972778,793.632690 315.465240,777.041870 
	C313.695099,772.528870 310.464600,770.644287 305.962585,770.324402 
	C297.990265,769.757812 290.190948,767.960327 282.269012,767.031067 
	C280.133942,766.780579 277.974823,766.386169 276.195007,764.323853 
	C261.240692,762.095703 246.408524,760.885010 231.802872,758.008118 
	C228.552917,757.367920 225.334198,756.629761 222.148590,754.622559 
	C220.806976,750.614807 223.483948,749.190308 226.154938,748.278503 
	C228.633789,747.432251 231.269669,746.787659 233.970398,746.832947 
	C247.090912,747.052917 260.207397,746.198242 273.340790,747.515808 
	C281.760925,748.360413 290.296753,747.824707 298.777496,747.670715 
	C302.954590,747.594849 303.686432,746.580261 302.273987,742.792664 
	C297.391083,729.698608 293.228394,716.370056 288.975006,703.067261 
	C287.208862,697.543579 285.607117,696.770874 279.625336,697.580383 
	C272.341248,698.566101 265.057831,698.756714 257.423004,697.192627 
	C237.285538,691.785583 217.796753,685.661316 198.497833,678.931641 
	C193.320053,677.126099 188.070496,675.443420 183.184601,672.205444 
	C181.827011,667.615112 183.426056,665.439575 188.353760,664.959595 
	C196.899521,664.127197 205.235077,665.556885 213.508774,667.518738 
	C222.560654,669.665100 231.606171,671.853333 240.590820,674.251038 
	C252.160233,677.338501 263.330566,675.105225 274.508026,672.349976 
	C277.008789,671.733582 277.970062,669.886719 277.562561,667.402405 
	C276.648804,661.832520 275.728424,656.260803 274.404602,650.770020 
	C273.873505,648.567139 272.421356,646.928284 270.622284,645.662415 
	C268.578003,644.224060 266.713776,642.577271 264.452454,640.831055 
	C256.813446,636.066406 250.108994,630.616272 242.684998,625.566284 
	C242.325928,625.061707 242.207092,624.842102 242.030212,623.884155 
	C232.052078,614.822571 222.145844,606.482605 212.208206,598.180359 
	C201.216782,588.997620 190.063599,579.993225 180.567856,569.181702 
	C177.803299,566.033997 175.295273,562.722534 174.160889,558.193909 
	C173.822861,554.719666 176.074600,554.290771 178.797852,553.913452 
	C181.673035,554.255249 183.887024,555.525513 186.698761,556.017822 
	C187.287888,556.116455 187.520218,556.168335 188.091675,556.323730 
	C188.866165,556.593323 189.291199,556.782288 190.006149,557.155029 
	C190.497894,557.430359 190.686890,557.550476 191.136871,557.875000 
	C192.407990,559.189087 193.626480,560.032837 195.180267,560.953552 
	C195.873154,561.241394 196.283676,561.374634 197.019699,561.587524 
	C197.534393,561.796448 197.729523,561.907410 198.174561,562.244263 
	C199.837357,563.989929 201.539429,565.025513 203.891510,565.638733 
	C204.430878,565.862488 204.634552,565.982483 205.094391,566.348511 
	C210.124878,571.807129 216.458679,574.928833 222.049713,579.046082 
	C237.269272,590.254028 251.441422,602.830627 267.073090,613.499329 
	C269.343903,615.049194 271.363007,617.044983 274.672485,618.023926 
	C275.084534,610.889771 274.586212,604.098755 275.863220,597.406616 
	C277.892548,586.772034 281.890106,577.229004 289.146790,568.988220 
	C292.181793,565.541687 294.444427,561.411072 298.000610,558.344788 
	C299.508118,557.044922 300.835419,555.529968 303.074951,554.597168 
	C310.965820,547.132080 320.744232,544.478027 330.434967,541.917847 
	C335.554047,540.565491 340.601807,537.709778 346.593018,539.777283 
	C359.465515,537.897583 371.940887,535.214294 384.784729,536.918213 
	C388.616089,537.426514 392.224731,538.416748 395.685120,540.915894 
z"/>
<path fill="#FE4E00" opacity="1.000000" stroke="none" 
	d="
M835.986755,676.294922 
	C856.580200,675.309509 876.888367,676.388733 897.189819,676.282288 
	C909.264648,676.218933 918.466492,681.208496 927.500916,688.178589 
	C948.592224,704.450439 967.066345,723.192932 983.788574,743.945007 
	C992.634277,754.922424 999.337036,766.592957 1003.497986,779.919189 
	C1008.596252,796.247620 1015.879578,811.875977 1019.388062,828.704529 
	C1020.718201,835.084534 1021.055298,841.638733 1018.937561,847.967590 
	C1016.096924,856.456909 1008.127075,859.202087 1000.520935,854.418579 
	C995.946655,851.541992 992.392090,847.552368 989.040344,843.389709 
	C980.128540,832.321960 972.911804,820.161194 966.234131,807.668762 
	C964.880066,805.135559 963.229980,802.940857 961.181702,800.933716 
	C938.809998,779.010437 915.545654,758.041260 892.336914,736.486450 
	C889.812195,735.708496 887.488586,735.425537 885.824402,733.496033 
	C880.110840,726.871826 872.332703,725.774780 864.213318,725.229980 
	C848.826965,724.197510 833.391113,724.394836 818.014954,723.184814 
	C812.477844,722.749146 810.940857,721.194763 811.720215,715.581482 
	C813.179565,705.070923 814.748169,694.572876 816.883179,684.167908 
	C817.309509,682.090332 818.512024,680.580200 819.968811,678.652954 
	C820.441467,678.110535 820.646912,677.908752 821.169434,677.418335 
	C821.734741,676.995667 821.982910,676.861633 822.635071,676.622070 
	C827.247864,676.090942 831.416687,674.644653 835.986755,676.294922 
z"/>
<path fill="#FE4E00" opacity="1.000000" stroke="none" 
	d="
M194.564392,753.719849 
	C177.930862,767.958984 161.674866,782.016418 145.443878,796.102783 
	C140.383408,800.494629 136.162170,805.590027 132.398331,811.156433 
	C121.855690,826.747864 111.269615,842.322327 98.850594,856.527832 
	C93.655197,862.470520 88.168785,867.805176 79.816422,869.366943 
	C69.721687,871.254517 64.640617,866.748840 66.310867,856.532776 
	C67.469589,849.445251 69.934113,842.704163 72.414337,836.001526 
	C80.152817,815.089050 89.105606,794.692200 98.347450,774.402527 
	C104.188568,761.578857 112.362961,750.740234 122.696953,741.262634 
	C136.968063,728.174072 152.051361,716.187683 168.035797,705.240479 
	C179.492477,697.394165 191.622986,693.895142 205.608398,694.686768 
	C222.073914,695.618835 238.482361,697.141357 255.370300,698.262695 
	C259.499420,697.273499 262.403473,698.696594 265.514801,700.669800 
	C277.148682,708.047974 284.147644,718.337708 286.639282,731.889954 
	C288.149445,740.103821 285.318237,744.384521 276.974457,744.053528 
	C262.723724,743.488281 248.456970,742.959595 234.248779,741.544128 
	C228.443558,740.965759 222.586136,740.872925 216.812881,741.483093 
	C211.455719,742.049255 207.764664,746.128906 203.597382,749.095337 
	C200.924835,750.997864 198.661102,753.668762 194.564392,753.719849 
z"/>
<path fill="#B00C11" opacity="1.000000" stroke="none" 
	d="
M721.246216,858.823486 
	C721.193298,855.774780 723.336853,853.776978 724.918884,851.458069 
	C743.962646,823.541870 761.049927,794.693420 768.737000,761.237671 
	C772.875427,743.226746 776.825500,725.175598 779.652161,706.916870 
	C783.729492,680.580383 786.790222,654.123779 785.893433,627.399536 
	C785.406921,612.901001 783.575623,598.557434 779.614380,584.531372 
	C771.410156,555.481323 752.833069,538.526733 722.481567,534.986694 
	C716.045471,534.235962 709.647705,533.043579 703.291382,531.761597 
	C698.966675,530.889404 694.753784,529.495972 693.976746,523.765747 
	C695.260559,518.501282 699.161804,516.921326 703.554626,516.072998 
	C714.693787,513.922058 725.550232,516.319092 736.438416,518.189758 
	C738.007629,518.459351 739.549255,519.537842 741.520508,518.284790 
	C751.897278,519.172607 760.960388,522.914978 769.131104,528.711914 
	C773.682373,531.940979 778.152222,535.405762 781.077148,540.836060 
	C788.395752,548.863892 793.196777,557.886475 796.031372,567.931152 
	C798.241333,575.762390 800.462524,583.598816 802.197998,591.553528 
	C802.987671,595.173218 804.391174,596.515564 808.671753,596.191101 
	C819.185242,595.393982 826.910156,589.431702 834.716492,583.563904 
	C851.523010,570.930847 869.412354,560.183716 888.643555,551.682068 
	C891.086548,550.602051 893.634338,549.738770 896.325256,549.721985 
	C898.659119,549.707336 900.715881,550.302856 900.217896,553.681641 
	C896.129761,561.062500 889.607605,565.518372 883.475830,570.226135 
	C867.170715,582.744751 850.107483,594.289490 834.953674,608.275330 
	C834.128601,609.036804 832.854126,609.378601 832.718018,610.953003 
	C832.435364,614.892944 829.457642,615.212769 826.330811,615.946533 
	C821.090271,618.288147 815.927856,618.399292 810.752380,618.265808 
	C807.001038,618.169128 805.221985,619.798950 805.274292,623.620789 
	C805.410889,633.618530 804.357788,643.544617 803.390564,653.479065 
	C802.769409,659.860229 804.025085,660.988831 810.300476,659.646240 
	C829.186462,655.605957 847.875854,650.686401 866.776001,646.727417 
	C878.966980,644.173889 891.170715,641.236816 903.791504,641.851990 
	C906.493835,641.983765 909.910889,641.596069 909.272949,646.474731 
	C898.297668,654.817749 885.564941,658.482422 873.208679,662.874023 
	C861.933350,666.881531 850.453247,670.313293 838.700317,674.014160 
	C833.755737,676.534241 828.522278,676.323486 823.307983,677.790283 
	C822.979919,678.021851 822.996887,677.991394 823.013672,677.995972 
	C822.787720,678.147034 822.545044,678.293396 821.883728,678.511597 
	C817.739197,681.311890 813.342957,682.302063 808.960083,683.156372 
	C804.691223,683.988464 802.392517,685.929932 801.903076,690.638550 
	C800.702087,702.192505 798.859680,713.671570 796.750000,725.104858 
	C795.972046,729.321045 797.052551,730.456421 801.429932,730.691223 
	C811.250854,731.218140 820.988647,729.838806 830.762817,729.310120 
	C844.832458,728.549194 858.895020,727.225586 872.978943,728.972778 
	C879.430054,729.773010 881.381592,731.479736 881.297852,736.558228 
	C871.737061,742.665710 861.076294,742.712891 850.735718,743.853882 
	C838.517700,745.201965 826.244995,746.049561 814.002502,747.184753 
	C812.543457,747.319946 811.125366,747.897400 809.431030,748.534668 
	C809.022278,749.010132 808.870911,749.220825 808.374146,749.607788 
	C804.223389,749.991211 800.422058,750.323669 796.606750,750.252197 
	C793.503906,750.194031 791.858521,751.604980 790.953857,754.665588 
	C787.005981,768.020996 783.315247,781.464661 778.125305,794.422791 
	C776.953491,797.348572 775.749268,800.277954 774.374634,803.091614 
	C772.643738,806.634338 774.050598,807.876526 777.317017,808.474121 
	C782.865295,809.489136 788.384094,810.661316 793.655090,812.728699 
	C798.907471,814.788879 800.100281,816.540283 799.204468,821.147461 
	C795.509827,825.169373 790.709229,825.266479 786.167603,825.915405 
	C779.252380,826.903442 772.270996,827.188599 765.298523,826.878662 
	C762.190979,826.740479 760.125122,827.725403 758.080383,830.137085 
	C749.422241,840.348816 739.025879,848.599365 727.865601,855.908386 
	C725.938171,857.170715 723.998474,858.516541 721.246216,858.823486 
z"/>
<path fill="#FE4E00" opacity="1.000000" stroke="none" 
	d="
M242.886917,623.837830 
	C250.597900,627.833069 257.072662,633.180481 263.948730,638.497925 
	C266.671051,641.912781 267.439514,645.525452 267.283081,649.502686 
	C267.165741,652.485901 267.287323,655.473755 267.728302,658.468079 
	C268.509430,663.772095 266.214325,665.997925 260.809387,665.006409 
	C251.477722,663.294556 242.190796,661.329102 232.806854,659.912659 
	C202.699219,655.368164 172.650482,650.425415 142.456390,646.464966 
	C136.107895,645.632324 130.085693,646.280945 125.389137,651.307495 
	C123.874451,652.928650 121.804588,652.892456 119.558533,653.697876 
	C103.230988,668.277100 87.929070,683.394043 70.729042,696.319580 
	C60.194672,704.236084 49.298878,711.596008 36.056812,714.328918 
	C34.123444,714.727905 32.083015,714.955688 30.123323,714.818115 
	C22.489712,714.282410 19.495234,709.694824 22.111706,702.573364 
	C24.247604,696.759766 27.464802,691.491577 30.970949,686.431335 
	C49.611977,659.527832 70.870560,634.848267 94.481384,612.198730 
	C101.789246,605.188354 109.844994,599.231506 120.378220,598.388000 
	C128.260300,597.756897 135.793518,600.593750 143.527237,601.542297 
	C176.803482,605.623962 208.823944,615.280518 241.576660,623.295349 
	C241.972168,623.145935 242.003662,623.050415 241.956238,623.033691 
	C242.169846,623.235901 242.433838,623.451172 242.886917,623.837830 
z"/>
<path fill="#FE4E00" opacity="1.000000" stroke="none" 
	d="
M825.850098,614.370544 
	C828.241638,613.284790 830.323242,612.478455 832.618774,611.438965 
	C865.682556,599.426086 898.539001,587.658386 932.586365,579.680725 
	C938.410583,578.316101 944.307007,577.196960 950.219543,576.286072 
	C960.414551,574.715454 970.052429,576.331543 979.104370,581.558655 
	C987.694641,586.519165 995.490051,592.501831 1002.204346,599.717651 
	C1019.793152,618.620422 1036.447021,638.353882 1053.058350,658.112366 
	C1057.661743,663.588074 1061.554688,669.651917 1064.023560,676.470764 
	C1067.603638,686.358948 1064.018677,692.010193 1053.503784,692.834045 
	C1045.596924,693.453613 1038.408936,690.784973 1031.492065,687.347351 
	C1017.017517,680.153687 1004.702209,669.942322 992.919556,659.096619 
	C983.360352,650.297546 974.153687,641.115601 964.502380,631.934692 
	C960.849548,630.696777 958.095520,628.808716 955.476013,626.373108 
	C950.962036,622.175903 945.258301,620.870911 939.248596,621.688354 
	C904.736877,626.382507 871.016846,634.647766 837.624023,644.379089 
	C833.964539,645.445557 830.371704,646.841125 826.527893,647.191406 
	C823.800781,647.439941 821.577454,646.397888 821.722717,643.503113 
	C822.179688,634.398071 822.390015,625.248962 824.438232,616.299011 
	C824.583130,615.665894 825.109253,615.159302 825.850098,614.370544 
z"/>
<path fill="#FE4E00" opacity="1.000000" stroke="none" 
	d="
M180.316772,555.649780 
	C178.035873,555.859192 175.982330,555.653137 174.217926,557.582153 
	C167.022247,560.117371 160.453415,563.345032 153.856918,566.462463 
	C139.428604,573.281006 124.622993,579.209351 109.933136,585.411682 
	C105.016357,587.487671 99.924446,589.046570 94.613342,589.671814 
	C84.955391,590.808777 79.706841,584.375305 82.695641,575.128906 
	C84.680153,568.989380 88.294563,563.761780 92.588211,559.107178 
	C113.354416,536.595215 138.338516,520.198730 166.708115,508.939575 
	C178.244110,504.361237 189.670807,504.907806 200.951599,510.598755 
	C210.461044,515.396118 219.885056,520.324341 228.889359,525.993347 
	C248.729935,538.484863 268.469513,551.136780 288.555420,563.852905 
	C292.155701,565.696533 291.107361,567.966980 288.929626,569.256836 
	C277.488647,576.033325 272.904602,587.371643 268.500580,598.940613 
	C266.352264,604.583984 263.701813,605.414673 258.585785,602.041931 
	C240.732422,590.271851 222.140839,579.659424 204.251740,567.263916 
	C203.973740,567.015381 204.000916,566.995911 203.997803,567.012207 
	C201.896286,565.711548 199.470947,564.978088 197.246567,563.197876 
	C196.974579,562.995239 197.007141,562.990295 197.010315,563.006409 
	C196.679306,562.717773 196.290131,562.515015 195.548981,562.255493 
	C193.666351,561.211731 192.110077,560.274414 190.231232,559.213135 
	C189.947617,559.021118 189.998337,558.991699 190.003723,559.020508 
	C189.592194,558.572449 188.991318,558.512695 188.192139,558.187378 
	C187.950409,558.020386 188.001556,557.992737 188.005600,558.021484 
	C185.649246,556.918213 183.178726,556.109741 180.316772,555.649780 
z"/>
<path fill="#FE4E00" opacity="1.000000" stroke="none" 
	d="
M807.728516,748.682983 
	C808.285278,748.839233 808.463501,748.846436 808.907715,748.826538 
	C829.015869,752.311768 848.466736,757.170715 867.104065,765.035339 
	C879.996765,770.475830 889.879639,779.054993 896.744995,791.320374 
	C908.048706,811.515320 914.837341,832.941345 916.083191,856.161560 
	C916.779907,869.147156 917.651672,882.075378 915.095581,894.951355 
	C914.998413,895.440857 914.961243,895.943970 914.839722,896.426636 
	C912.097961,907.316162 905.779907,909.977905 896.505920,903.434875 
	C883.304565,894.120972 875.064331,880.826599 869.025635,866.185608 
	C864.912048,856.212158 860.987061,846.093628 857.994690,835.745911 
	C855.488342,827.079224 850.759277,821.146790 842.184326,817.661987 
	C837.529419,816.808594 833.593262,815.214600 829.924316,812.761902 
	C824.220520,808.948792 817.606262,808.118164 810.996765,807.155273 
	C804.088928,806.148926 797.052673,806.752991 790.201050,805.262085 
	C784.685730,804.061890 783.629517,801.871033 786.411743,796.849915 
	C793.953674,783.238647 799.487854,768.872437 802.842163,753.676270 
	C803.412537,751.092102 804.250000,748.849670 807.728516,748.682983 
z"/>
<path fill="#FE4E00" opacity="1.000000" stroke="none" 
	d="
M249.446640,826.804321 
	C243.687149,831.365845 239.807343,836.977905 236.148438,842.734985 
	C228.191010,855.255615 222.021942,868.694702 215.921890,882.181702 
	C209.934952,895.418518 200.302628,905.260437 187.012604,911.238647 
	C176.403107,916.011047 172.562546,913.732422 173.366425,902.220825 
	C175.386063,873.299255 180.014908,844.810425 189.930023,817.402832 
	C191.914291,811.917969 194.763824,806.838135 197.846085,801.885132 
	C203.665192,792.534363 211.532700,785.846497 221.952820,781.917419 
	C237.900482,775.904053 254.139145,771.359924 271.656342,770.302979 
	C285.313263,766.679626 301.303070,773.721313 307.552307,785.980896 
	C311.633209,793.986694 316.004700,801.835022 320.250153,809.751465 
	C323.174774,815.205017 321.753845,817.952942 315.562988,818.135193 
	C306.909332,818.389832 298.248199,818.275574 289.591583,818.206543 
	C278.801025,818.120483 268.420898,820.134460 258.384033,823.995850 
	C255.576645,825.075928 252.640350,825.664368 249.446640,826.804321 
z"/>
<path fill="#FE0019" opacity="1.000000" stroke="none" 
	d="
M204.014114,567.354858 
	C214.048080,571.024109 222.844025,577.332336 232.087585,582.810791 
	C241.789124,588.560730 251.284363,594.669800 260.721954,600.847717 
	C263.753510,602.832153 264.964783,602.724121 266.223602,599.033081 
	C269.328278,589.929565 272.625244,580.848633 279.655273,573.778809 
	C281.788452,571.633484 284.111420,569.842468 286.840759,568.518860 
	C288.401489,567.762024 290.565002,567.159058 289.006989,564.278320 
	C290.455322,561.146790 288.842499,558.770996 287.525635,556.553162 
	C284.047485,550.695374 280.382935,544.947205 276.739502,539.188965 
	C269.788696,528.203552 265.589783,516.242981 263.812683,503.385773 
	C263.509735,501.193848 263.543640,499.043762 260.635742,497.825409 
	C240.945419,489.575562 231.457489,473.732758 227.957794,453.424316 
	C225.378983,438.459747 229.415863,425.134155 237.391403,412.686951 
	C240.904739,407.203735 245.165924,402.314056 249.929596,397.431366 
	C263.658722,414.839630 281.394440,425.651520 303.331604,429.570129 
	C312.241638,431.161743 321.180145,430.894012 330.577942,430.051910 
	C329.190308,445.190796 324.414093,458.929871 312.501953,469.254730 
	C311.203156,470.380402 310.815338,471.622803 310.823853,473.546204 
	C310.160950,476.196136 308.215424,476.696808 306.263855,477.231689 
	C289.621277,481.793274 285.554871,493.392883 287.635742,508.665527 
	C289.550690,522.720215 296.204193,535.095886 302.340271,547.619507 
	C303.489990,549.966064 305.176147,552.213928 304.192932,555.472778 
	C291.777679,566.323975 282.422272,578.764221 278.603149,594.775696 
	C276.817261,602.262878 276.842621,609.924500 276.847260,617.572998 
	C276.848114,618.997864 277.615234,620.917786 276.221191,621.756165 
	C274.679047,622.683716 273.621857,620.833496 272.444977,620.042053 
	C252.011429,606.300598 233.465393,590.080750 213.801163,575.327454 
	C210.503387,572.853333 206.644409,571.076050 204.014114,567.354858 
z"/>
<path fill="#FE4E00" opacity="1.000000" stroke="none" 
	d="
M804.728455,558.084595 
	C833.119507,535.986206 861.762390,514.826843 893.144043,497.697540 
	C895.768860,496.264862 898.563477,495.138947 901.164246,493.667389 
	C915.343689,485.644653 929.273315,486.440460 943.447815,494.018036 
	C967.326416,506.783386 988.464844,523.030396 1006.996948,542.715454 
	C1010.330994,546.257019 1013.126404,550.226318 1014.653198,554.891357 
	C1016.626465,560.920288 1014.569214,564.599609 1008.428040,566.085693 
	C1000.313171,568.049438 992.555908,566.289612 985.015076,563.352112 
	C972.429077,558.449280 960.724060,551.702026 948.644043,545.740601 
	C941.486572,542.208496 934.373901,538.585022 926.455017,535.868164 
	C923.265259,536.091919 920.497559,535.905457 917.750366,535.081177 
	C911.856995,533.312683 906.308960,534.273926 900.882141,537.072021 
	C886.491943,544.491699 873.484497,554.034546 860.332153,563.344116 
	C850.028198,570.637634 839.969849,578.276733 829.670166,585.578003 
	C822.964111,590.331726 819.510193,589.300903 816.307251,581.743774 
	C813.385742,574.850952 810.601501,567.896362 805.654724,562.105164 
	C804.753418,561.050110 804.248535,559.852905 804.728455,558.084595 
z"/>
<path fill="#FD8700" opacity="1.000000" stroke="none" 
	d="
M500.175659,527.447144 
	C491.750336,529.709351 483.096008,529.487061 474.566956,530.545288 
	C463.741608,531.888367 452.867615,532.839294 441.593872,533.949585 
	C437.468262,515.915649 430.614990,498.966827 423.394897,482.154327 
	C413.902924,460.051483 412.238983,437.468170 419.076660,414.357391 
	C421.409149,406.473694 425.036926,399.200165 430.053436,392.646790 
	C447.869751,369.372162 476.256226,372.451385 493.043182,384.322388 
	C503.108246,391.440033 506.274384,402.296783 506.944885,414.023834 
	C507.731262,427.778290 505.293427,441.250153 502.960297,454.701111 
	C498.800781,478.681427 499.650330,502.835419 500.175659,527.447144 
z"/>
<path fill="#FE0019" opacity="1.000000" stroke="none" 
	d="
M804.448120,557.838135 
	C811.317200,564.514587 815.269287,572.713074 818.573853,581.311096 
	C821.208496,588.166138 821.750610,588.337341 827.957458,583.962219 
	C846.854370,570.641846 865.087646,556.380493 884.599609,543.933838 
	C888.944336,541.162292 893.488098,538.704773 897.889648,536.019775 
	C906.990112,530.468323 916.210693,531.017944 925.815063,535.566162 
	C917.609375,541.786560 909.127502,547.778931 900.323730,553.880981 
	C899.702454,550.885132 897.671936,551.350891 895.607727,551.848328 
	C888.415894,553.581604 881.941345,557.010254 875.471436,560.424500 
	C859.255188,568.982117 843.908325,578.924927 829.489380,590.224731 
	C822.343262,595.825012 814.184631,597.888306 805.507935,598.919739 
	C802.701843,599.253296 801.374390,598.316406 800.726685,595.368225 
	C799.194275,588.392029 796.983826,581.563477 795.488098,574.580872 
	C792.923462,562.608643 787.385620,552.133301 780.026489,542.092041 
	C779.431335,538.522766 782.091492,537.600281 784.094177,536.256531 
	C797.047119,527.565369 807.734619,516.903870 814.277588,502.451843 
	C816.026001,498.589905 817.107300,494.602234 817.601440,490.486664 
	C818.670593,481.581909 811.315369,474.645660 800.736084,474.201019 
	C798.475769,474.106049 796.058716,475.166687 793.784973,473.154053 
	C785.792542,463.096039 777.978516,453.355652 770.025635,443.300415 
	C774.861267,443.081207 779.765625,443.932800 784.747253,444.165985 
	C809.392944,445.319641 827.329163,433.964874 841.222717,414.671478 
	C846.335632,407.571320 849.556030,399.581818 852.651001,391.121582 
	C862.052917,406.995239 868.680359,423.885529 866.955139,442.964752 
	C865.768677,456.086243 860.872498,467.448273 850.220398,475.775208 
	C848.798584,476.886658 847.861206,477.559082 848.769531,479.726746 
	C851.558960,486.383636 850.481567,493.095764 848.358521,499.727997 
	C844.742798,511.022980 837.605652,519.897278 829.074768,527.815735 
	C822.099182,534.290527 814.330017,539.768127 806.814880,545.566772 
	C804.577087,547.293396 802.425964,549.148560 800.365356,551.083496 
	C798.632446,552.710754 796.860474,554.761108 798.144348,557.189819 
	C799.468750,559.695374 801.969116,558.174866 804.448120,557.838135 
z"/>
<path fill="#FD8700" opacity="1.000000" stroke="none" 
	d="
M649.130249,523.235840 
	C630.187012,523.783264 611.164612,523.898499 591.688354,523.999695 
	C591.047119,523.913452 590.859558,523.841187 590.817017,523.504639 
	C590.882751,522.754639 590.803406,522.268982 590.739380,521.413879 
	C590.754700,521.044434 590.554993,520.644043 590.613037,520.427979 
	C588.987549,505.182251 588.445740,489.970123 584.903748,475.226013 
	C582.267822,464.253479 578.493286,453.556091 577.513062,442.210815 
	C576.489868,430.368195 576.616455,418.615753 579.869141,407.056641 
	C586.680298,382.851685 605.163330,371.183899 629.997742,375.449707 
	C652.708008,379.350677 664.243164,393.604218 664.790466,418.785156 
	C665.156128,435.611237 661.551758,451.837830 656.446350,467.730957 
	C650.682190,485.674652 648.249512,504.007477 649.130249,523.235840 
z"/>
<path fill="#FE4D00" opacity="1.000000" stroke="none" 
	d="
M304.380188,555.712280 
	C296.933899,541.458740 288.723511,527.525330 285.838257,511.388092 
	C282.089935,490.423920 289.498047,477.614838 310.470337,473.978882 
	C320.033691,473.513489 326.768372,477.821198 331.838135,485.068329 
	C339.762054,496.395447 342.727081,509.496765 344.898682,522.818359 
	C345.778900,528.218201 346.216156,533.690125 346.895111,539.551880 
	C339.556580,541.946594 332.170929,543.892883 324.801270,545.898071 
	C317.501221,547.884338 310.802277,551.143555 304.380188,555.712280 
z"/>
<path fill="#FE4D00" opacity="1.000000" stroke="none" 
	d="
M793.159363,472.884155 
	C797.884888,472.033203 802.089172,471.704102 806.441650,472.854736 
	C819.034058,476.183746 823.295349,487.031769 817.248230,501.264221 
	C811.582153,514.599609 802.799866,525.504883 791.032410,533.966492 
	C787.522583,536.490234 783.898438,538.854919 780.099915,541.532349 
	C770.826721,530.767273 759.230286,523.933899 745.446350,520.619019 
	C744.234863,520.327637 742.772278,520.176025 741.971680,518.438538 
	C751.263000,496.194580 766.348694,480.365051 789.787781,473.527802 
	C790.739502,473.250183 791.736328,473.126984 793.159363,472.884155 
z"/>
<path fill="#FE0018" opacity="1.000000" stroke="none" 
	d="
M825.755310,614.131836 
	C825.426208,623.196045 825.012634,632.342773 823.830994,641.389160 
	C823.186768,646.321228 825.240479,645.568848 828.332336,644.712769 
	C845.647217,639.918396 862.935059,635.015503 880.323242,630.500488 
	C899.970337,625.398987 919.995178,622.094971 940.068359,619.252747 
	C946.437317,618.350952 952.646362,620.112915 957.516968,624.931885 
	C959.636047,627.028503 961.800659,629.079041 964.079346,631.458191 
	C946.070862,636.705872 927.927673,641.645935 909.427429,646.712708 
	C908.814392,643.622314 906.373840,644.004517 904.246155,643.949585 
	C891.988464,643.632935 880.095886,646.276550 868.253723,648.832947 
	C847.606384,653.290100 827.032654,658.099609 806.487061,663.008423 
	C801.927185,664.097778 800.655701,663.078491 800.901672,658.398560 
	C801.582031,645.456238 803.593140,632.579712 802.954163,619.572327 
	C802.804749,616.530029 804.577637,615.997009 807.079895,616.053589 
	C813.243958,616.193115 819.412537,616.270813 825.755310,614.131836 
z"/>
<path fill="#FE0018" opacity="1.000000" stroke="none" 
	d="
M594.649170,178.829773 
	C596.284363,186.843338 602.109985,191.901627 607.920837,196.950119 
	C621.353638,208.620697 635.685181,219.293228 647.822632,232.402496 
	C655.617798,240.821854 663.547546,249.165771 669.644409,258.983429 
	C671.132568,261.379822 672.446838,263.900238 673.652588,266.452667 
	C675.991455,271.403900 675.289856,275.789307 671.023132,279.489227 
	C651.967651,296.013245 645.684998,317.502441 647.058838,341.850220 
	C647.281799,345.801697 648.343201,349.705841 649.017151,354.075500 
	C643.309998,351.525665 638.081299,347.934967 634.073608,342.345032 
	C636.008301,329.053680 635.398315,315.891815 636.547913,302.840607 
	C637.616089,290.713684 643.466431,280.795410 650.219055,271.217255 
	C652.904602,267.408051 655.759277,263.709381 657.611389,259.397980 
	C658.764038,256.714905 659.574402,253.776337 656.983582,251.561951 
	C654.526428,249.461884 651.990112,251.101929 649.547302,252.182007 
	C646.203369,253.660507 644.053345,257.899231 639.157471,256.353149 
	C624.857849,242.243286 611.961182,227.447098 601.554077,210.634933 
	C597.334351,203.818146 593.722534,196.701691 592.605286,188.593552 
	C592.139404,185.212296 592.201965,181.949875 594.649170,178.829773 
z"/>
<path fill="#FE0018" opacity="1.000000" stroke="none" 
	d="
M119.563248,653.955933 
	C127.772606,642.020752 139.793884,643.338989 152.069244,645.233215 
	C180.100113,649.558838 208.159714,653.698730 236.184998,658.059570 
	C244.215652,659.309143 252.185028,660.977112 260.152222,662.601685 
	C266.169312,663.828613 266.008728,663.950439 265.304199,658.039856 
	C264.577515,651.943298 265.398865,645.730957 264.119507,639.213013 
	C272.350403,642.536377 278.143616,647.933105 278.279572,657.855652 
	C278.331238,661.625732 279.329590,665.441956 280.323059,669.121948 
	C281.150360,672.186279 279.988037,673.365112 277.251984,674.089172 
	C263.764893,677.658936 250.353424,679.801208 236.434982,675.757202 
	C224.787537,672.372986 213.005692,669.346985 200.980789,667.443420 
	C196.829269,666.786255 192.678299,666.800110 188.530838,667.072876 
	C185.956009,667.242310 183.567200,668.062744 183.013931,671.531799 
	C164.524338,666.670837 146.401062,660.215820 127.705177,655.719727 
	C125.130249,655.100464 122.533302,654.572754 119.563248,653.955933 
z"/>
<path fill="#FD4D00" opacity="1.000000" stroke="none" 
	d="
M626.341431,332.111633 
	C615.172180,321.556458 604.621094,310.421265 595.873779,297.846680 
	C586.266724,284.036133 580.610168,268.691528 581.943176,251.529373 
	C582.765930,240.937469 588.793030,238.033356 597.455200,244.257874 
	C608.538269,252.221985 618.114929,262.033539 628.743896,271.112793 
	C631.115601,273.018951 630.720276,275.124512 629.915100,277.221039 
	C626.851746,285.197723 625.503906,293.545502 624.526245,301.969421 
	C623.612610,309.841522 624.767639,317.529541 626.721741,325.140869 
	C627.291870,327.361328 628.273926,329.617218 626.341431,332.111633 
z"/>
<path fill="#FE0018" opacity="1.000000" stroke="none" 
	d="
M194.568649,753.984985 
	C197.368988,751.232117 200.801514,748.811829 203.707687,745.871277 
	C212.641296,736.832153 223.825851,738.747375 234.685333,739.254272 
	C242.640930,739.625610 250.573395,740.467651 258.524017,740.978027 
	C264.822510,741.382324 271.133392,741.850281 277.437866,741.837280 
	C284.523071,741.822632 285.723816,739.774170 284.488678,732.828247 
	C281.516602,716.115112 271.785522,705.099915 256.118195,698.450073 
	C256.104279,697.996094 256.393707,697.726135 256.868958,697.225952 
	C259.548981,695.698120 262.261200,695.989075 264.890106,696.090942 
	C271.396667,696.343079 277.829926,695.491394 284.275879,694.931213 
	C287.748291,694.629517 289.311829,695.996338 290.326935,699.247681 
	C295.180847,714.794983 299.798401,730.431091 306.012177,745.515686 
	C307.635437,749.456299 305.737976,749.926880 302.409210,750.040527 
	C283.445374,750.687988 264.541290,748.662231 245.591721,748.894165 
	C239.785553,748.965210 233.957642,748.605164 228.215775,749.981812 
	C225.696991,750.585815 223.443604,751.415405 221.952301,754.079834 
	C212.869705,754.872131 203.898865,755.901855 194.568649,753.984985 
z"/>
<path fill="#FD0018" opacity="1.000000" stroke="none" 
	d="
M249.562744,827.027954 
	C256.655670,820.599731 265.917908,818.536011 275.322937,817.042664 
	C288.727722,814.914246 302.255341,816.390503 315.722900,816.014526 
	C320.945007,815.868652 320.973511,815.809387 318.420868,811.137390 
	C314.428925,803.831238 310.078979,796.672058 306.728699,789.076599 
	C302.869415,780.327209 296.078735,775.835205 287.475281,773.054016 
	C282.668518,771.500183 277.756775,770.955688 272.429169,770.453979 
	C273.679840,768.637268 274.952850,766.778564 275.926514,764.345886 
	C287.825623,765.666443 299.670135,767.351868 311.526337,768.950623 
	C313.381042,769.200684 314.627289,769.974915 315.326813,771.687744 
	C323.463318,791.610840 336.117218,808.820984 348.171539,826.392151 
	C348.531036,826.916138 348.755798,827.532532 349.255127,828.527954 
	C345.301331,829.110718 341.831390,827.971558 338.372986,827.470215 
	C326.332458,825.724792 314.275085,824.472717 302.085083,824.955017 
	C298.853058,825.082886 295.776825,825.556946 293.085144,828.278992 
	C278.558136,827.579712 264.340607,825.898315 249.562744,827.027954 
z"/>
<path fill="#B10C11" opacity="1.000000" stroke="none" 
	d="
M410.775269,242.158447 
	C412.146576,240.220718 413.680145,239.104507 415.669373,238.052551 
	C423.492554,235.555405 429.337006,238.434509 434.880859,247.593781 
	C434.410400,250.095169 435.959961,251.360611 436.962708,252.798981 
	C440.552643,257.948456 443.830658,263.257629 445.965515,269.592529 
	C451.473419,292.565613 451.889557,315.267853 447.015564,338.025482 
	C446.107300,342.266479 444.589417,346.316437 441.340515,349.846619 
	C436.472717,351.448212 435.698029,347.964844 435.003723,344.970093 
	C433.350952,337.841064 432.879761,330.497467 432.889832,323.250458 
	C432.921265,300.606415 425.840576,279.882690 416.658112,259.654114 
	C415.420135,256.926941 413.438293,254.638031 411.770416,252.163620 
	C409.784424,249.217209 408.112915,246.091202 410.775269,242.158447 
z"/>
<path fill="#FE0018" opacity="1.000000" stroke="none" 
	d="
M881.437134,736.966797 
	C880.981445,733.777222 878.868774,732.724243 876.275696,732.036133 
	C870.275818,730.443665 864.027039,730.220459 857.995361,730.317932 
	C844.416260,730.537354 830.859314,731.906189 817.282471,732.590515 
	C810.488220,732.932922 803.670166,732.820007 796.862671,732.871216 
	C794.467224,732.889282 793.203857,732.074707 793.678040,729.234192 
	C796.107605,714.681763 798.894043,700.177063 800.050049,685.439514 
	C800.209717,683.404236 801.517212,682.574463 803.246887,682.167480 
	C809.221802,680.761475 815.204102,679.387024 821.591797,677.998840 
	C822.141907,678.149475 822.283752,678.301941 822.213379,678.683533 
	C818.213745,683.219238 818.413696,688.819092 817.390015,693.937317 
	C815.862427,701.575256 815.091858,709.362000 813.692932,717.029541 
	C813.170898,719.890442 813.685608,720.929077 816.697266,721.044617 
	C831.296814,721.604980 845.897156,722.949158 860.483948,722.791443 
	C873.089111,722.655090 883.613403,725.944031 891.923218,735.997437 
	C888.787354,738.468323 885.296204,737.576660 881.437134,736.966797 
z"/>
<path fill="#FE0018" opacity="1.000000" stroke="none" 
	d="
M807.754395,748.602661 
	C805.432190,749.625366 805.525513,752.101807 805.094910,754.101807 
	C801.740356,769.680603 796.131592,784.393677 788.140564,798.166687 
	C786.275024,801.382080 785.745605,803.038269 790.511292,803.200012 
	C796.471375,803.402344 802.410278,804.667053 808.359070,804.672791 
	C821.008606,804.684998 831.417053,810.218262 841.648987,817.248657 
	C827.895325,818.748779 813.918030,820.041138 799.487061,821.407959 
	C799.362915,817.332764 796.179871,816.115356 793.272766,815.000427 
	C786.580627,812.433960 779.596985,810.867493 772.487671,810.064819 
	C769.519043,809.729736 769.182190,808.703857 770.380493,806.249207 
	C778.733032,789.138428 783.938049,770.919312 789.025452,752.672363 
	C789.931824,749.421448 791.572876,747.869690 794.987549,748.075623 
	C799.118774,748.324707 803.280334,747.504395 807.754395,748.602661 
z"/>
<path fill="#B10C11" opacity="1.000000" stroke="none" 
	d="
M626.114807,332.679352 
	C624.676392,325.408112 622.145325,318.664185 622.017822,311.455658 
	C621.801392,299.222443 623.557678,287.331207 628.017700,275.884430 
	C628.490479,274.670898 628.678955,273.346588 629.004272,271.704987 
	C632.294800,266.505585 635.580322,261.674866 638.846802,256.497009 
	C641.494202,255.816177 643.137634,253.778442 645.111023,252.318909 
	C647.397644,250.627686 649.713379,249.007629 652.509033,248.307755 
	C657.648132,247.021164 660.949951,249.643906 661.111389,254.930862 
	C661.225220,258.661377 659.465393,261.685181 657.570862,264.601776 
	C654.675903,269.058380 651.572388,273.379944 648.540771,277.747284 
	C641.294800,288.185699 638.122925,299.827698 637.948914,312.457214 
	C637.841431,320.253906 637.323486,328.044464 637.032837,335.839386 
	C636.947998,338.115356 636.376343,340.100311 634.167603,341.746613 
	C631.368774,339.016205 628.798096,335.995148 626.114807,332.679352 
z"/>
<path fill="#FD0018" opacity="1.000000" stroke="none" 
	d="
M435.255402,247.826889 
	C432.009094,247.672394 430.772491,245.066422 428.874573,243.375214 
	C425.402222,240.280945 421.862244,237.451035 416.379211,237.933411 
	C430.812500,226.583359 447.349670,217.945602 463.245483,208.277283 
	C474.303864,201.551270 485.878113,195.549271 495.273346,186.372849 
	C497.464844,184.232422 499.492706,182.057846 498.999756,178.235229 
	C502.918396,180.367874 501.900543,183.810318 500.454010,187.093262 
	C497.655701,193.444092 493.023834,198.508621 488.263947,203.405930 
	C472.896332,219.217178 455.545868,232.693649 437.955109,245.879288 
	C437.156799,246.477676 436.353943,247.070053 435.255402,247.826889 
z"/>
<path fill="#FD0018" opacity="1.000000" stroke="none" 
	d="
M823.409424,678.028442 
	C827.501648,675.569580 832.506409,674.882751 837.905151,674.042847 
	C837.765991,674.618591 837.194763,675.207703 836.450439,676.183105 
	C832.131165,677.057922 827.985046,677.546448 823.409424,678.028442 
z"/>
<path fill="#E24502" opacity="1.000000" stroke="none" 
	d="
M590.849976,523.380066 
	C590.962036,523.240295 591.136780,523.598083 591.185669,523.791870 
	C591.234619,523.985657 590.802246,524.092773 590.580750,524.114258 
	C590.462463,523.916321 590.588684,523.710999 590.849976,523.380066 
z"/>
<path fill="#E24502" opacity="1.000000" stroke="none" 
	d="
M590.573120,520.347900 
	C590.830627,520.364380 590.898804,520.550293 590.815125,520.907104 
	C590.526123,520.925110 590.432983,520.738281 590.573120,520.347900 
z"/>
<path fill="#FEFDFD" opacity="1.000000" stroke="none" 
	d="
M560.385010,757.214233 
	C559.921448,755.614197 559.839111,754.228882 559.663940,752.435181 
	C559.329773,751.483704 559.296326,750.927734 559.714722,750.003784 
	C560.220337,749.519714 560.479614,749.391052 561.170410,749.212585 
	C564.896545,749.283325 566.486938,747.295105 566.901306,744.408142 
	C567.356445,741.237244 565.788696,738.810913 562.907349,737.631653 
	C559.210388,736.118713 555.219482,735.545654 551.254578,735.538696 
	C513.808472,735.473389 476.362152,735.462402 438.916077,735.533997 
	C431.810120,735.547546 425.165192,737.403809 418.970306,741.905762 
	C417.905487,741.960266 417.327484,741.793091 416.499695,741.128906 
	C424.652588,700.422119 433.095795,660.071655 441.539062,619.721191 
	C442.289429,616.135193 443.029968,612.548035 442.851257,608.415039 
	C451.145996,602.023010 444.710388,588.907166 436.160187,586.534790 
	C430.193817,584.879272 424.207703,584.413635 417.842651,584.277588 
	C417.379272,583.515808 417.335632,583.017700 417.611145,582.154480 
	C418.261200,579.529907 418.751831,577.256226 419.327454,574.606934 
	C420.279449,572.172852 422.133514,571.877869 423.987701,571.871765 
	C449.466492,571.787292 474.947723,571.195923 500.873413,572.378845 
	C502.587433,573.366821 502.969147,574.558350 502.822906,576.449402 
	C502.704529,577.717590 502.649017,578.500854 502.392639,579.624390 
	C501.949249,581.499634 501.248962,582.945679 500.172119,583.902771 
	C492.387421,590.821899 492.277344,600.588135 490.078522,609.710083 
	C486.698975,623.730164 484.554657,637.988647 481.190643,652.020020 
	C478.180389,664.575806 475.758179,677.304565 473.238739,689.990723 
	C472.572083,693.347656 473.972565,695.376343 476.875793,697.260376 
	C477.803497,698.833618 477.327271,700.225037 477.766113,701.887451 
	C478.370148,702.369324 478.800110,702.487854 479.553406,702.478455 
	C482.949097,700.858459 486.233978,700.704041 489.572479,700.706482 
	C504.144043,700.717346 518.715637,700.740540 533.287170,700.696960 
	C535.250366,700.691040 537.352905,701.105103 538.768188,698.461792 
	C540.798218,692.477478 541.686829,686.762390 541.151367,680.407104 
	C542.140381,676.781616 545.898865,674.565369 544.069580,670.433411 
	C542.407898,666.679749 540.524170,662.738892 536.665527,661.406738 
	C531.444092,659.604065 526.031006,657.454712 520.244629,658.759766 
	C518.904358,659.062073 517.699341,659.526855 516.252686,658.309326 
	C516.041077,656.935608 516.053772,655.842285 516.239258,654.374268 
	C516.638550,653.601074 516.840759,653.190491 517.132446,652.444214 
	C517.286560,651.477844 517.330261,650.836914 517.301819,649.882080 
	C517.675781,645.868042 520.550049,645.888367 523.201599,645.812317 
	C532.312927,645.550964 541.428223,645.710571 550.541809,645.700806 
	C564.958557,645.685425 579.375610,645.631653 593.791809,645.747498 
	C596.376343,645.768250 599.155823,645.264587 601.678040,647.676880 
	C603.317871,649.361389 602.619568,650.836243 602.230713,652.610474 
	C602.011658,653.605347 601.817383,654.215332 601.426147,655.094910 
	C601.379639,655.414917 601.403076,655.774719 601.270325,655.896729 
	C591.154236,664.235657 590.983643,676.427063 588.565308,687.612915 
	C585.899841,699.941895 583.125122,712.246826 580.438599,724.570862 
	C579.091370,730.751282 578.320618,737.009888 577.350891,743.242737 
	C576.698730,747.434265 578.049377,751.103577 580.814453,754.706726 
	C581.156555,755.746094 581.216980,756.506104 581.162231,757.632812 
	C579.969116,759.076843 578.654358,760.078674 577.160339,759.652466 
	C571.789062,758.120239 566.132263,758.863403 560.385010,757.214233 
z"/>
<path fill="#FEFEFE" opacity="1.000000" stroke="none" 
	d="
M559.886658,757.333679 
	C566.886047,754.368591 573.512390,756.981079 580.632080,757.992920 
	C581.591553,760.789917 582.136047,763.580200 582.701416,766.756958 
	C582.897766,767.643311 583.081543,768.139893 583.416382,768.861023 
	C583.512146,769.108032 583.760071,769.134705 583.875000,769.086182 
	C585.350098,770.251831 587.104614,770.983643 588.228271,772.485657 
	C595.348999,782.004333 613.749023,781.739563 622.159668,775.753235 
	C624.216675,774.289185 625.996399,772.537231 627.501648,770.554749 
	C628.535889,769.192749 629.595276,767.993225 631.520630,767.183105 
	C635.357910,761.768616 636.559143,755.682800 637.862610,749.727661 
	C642.120911,730.273315 646.158813,710.770264 650.183167,691.265625 
	C650.748474,688.525696 650.765015,685.672424 651.126587,682.434814 
	C653.688171,678.169861 656.853027,674.669739 654.140686,669.441589 
	C651.328674,664.021301 646.966553,661.066956 641.257507,659.507385 
	C636.240601,658.136902 631.133728,658.935181 625.883789,658.185791 
	C625.422607,654.812500 626.670959,652.035950 627.569580,648.785400 
	C628.729614,645.887817 631.000610,645.837585 633.145569,645.819153 
	C656.687256,645.617493 680.229431,645.614685 703.771179,645.820435 
	C705.411987,645.834778 707.122009,645.894287 708.691040,647.644775 
	C710.702026,649.887085 709.660706,652.125671 709.771240,654.577881 
	C702.592346,661.968872 699.040466,670.267151 697.238831,680.259216 
	C693.350952,701.822266 688.264465,723.180359 683.664551,744.618896 
	C679.695740,763.116211 673.374878,780.341431 661.447083,795.188293 
	C654.376343,803.989380 644.993347,809.750977 634.446777,813.124573 
	C611.382568,820.502136 588.278748,819.291870 565.689880,811.098572 
	C557.064636,807.969971 549.657532,802.401611 543.904724,794.968384 
	C540.868286,791.044922 538.230408,786.696655 533.198181,784.828003 
	C531.405457,784.162292 531.016663,782.458984 530.748352,780.351929 
	C530.619873,779.521851 530.597168,779.077576 530.740967,778.335571 
	C530.950928,777.203552 531.402222,776.516357 531.614258,775.498169 
	C531.792908,774.407593 532.078857,773.600281 532.457520,772.482605 
	C531.913879,769.587524 533.484741,768.174927 535.314331,766.847107 
	C540.884644,762.804443 547.149902,760.964722 553.978027,760.830078 
	C555.737122,760.795410 557.692261,761.560120 559.251099,759.369019 
	C559.556213,758.580078 559.662903,758.123901 559.886658,757.333679 
z"/>
<path fill="#FF8800" opacity="1.000000" stroke="none" 
	d="
M339.229095,596.238403 
	C346.064209,587.387085 354.009644,580.413330 363.998016,576.055115 
	C376.835114,570.453857 389.332825,575.687500 392.441254,587.931702 
	C394.148285,594.655518 391.073486,600.327393 387.758270,605.755737 
	C382.784454,613.899902 376.391754,621.090454 369.548615,627.512085 
	C357.431396,638.882935 356.907013,652.794067 358.415436,667.580017 
	C359.159943,674.877747 359.773743,682.211304 358.088959,689.419983 
	C355.075195,702.314880 342.788818,706.054688 332.784271,697.303284 
	C327.027130,692.267273 323.448639,685.846252 322.244324,678.476135 
	C319.715851,663.002380 318.850372,647.409058 321.296478,631.811462 
	C323.433472,618.184753 330.824127,607.137024 339.229095,596.238403 
z"/>
<path fill="#F4EEEA" opacity="1.000000" stroke="none" 
	d="
M530.492615,780.357544 
	C532.137085,781.445374 533.454590,782.923340 535.725891,783.593262 
	C539.025879,784.566467 541.174500,787.338989 543.042908,790.125854 
	C551.793640,803.178467 564.163513,810.221619 579.399109,813.471924 
	C597.538757,817.341736 615.344604,817.269348 633.097290,811.779968 
	C649.909546,806.581299 661.385010,795.222412 668.969177,779.861755 
	C674.632629,768.391235 679.194946,756.553162 681.531921,743.720032 
	C685.314697,722.948364 690.356140,702.406311 694.830933,681.759705 
	C695.357788,679.328857 695.748169,676.860596 696.056824,674.391602 
	C697.135803,665.759399 700.986267,659.007202 709.324219,654.988281 
	C702.819336,679.424011 698.726257,704.491089 693.052734,729.204590 
	C690.120728,741.976135 687.373291,754.790161 684.582031,767.958130 
	C684.944641,774.193726 683.863892,779.576965 679.003662,784.003784 
	C672.952148,786.389832 670.551453,791.991821 666.897522,796.128784 
	C657.638550,806.611877 646.179138,813.173340 633.065430,817.118347 
	C616.847412,821.997253 600.194275,821.769897 583.747498,819.285583 
	C571.485168,817.433411 559.566528,813.604858 549.194641,806.188477 
	C545.527161,803.566223 542.679077,799.998413 538.863831,797.551086 
	C537.459106,796.650146 536.221313,795.513184 534.047729,795.307434 
	C532.210693,794.513733 531.549316,793.368469 531.786072,791.385315 
	C531.475769,787.562866 530.054443,784.289368 530.492615,780.357544 
z"/>
<path fill="#FF6104" opacity="1.000000" stroke="none" 
	d="
M678.247559,783.221313 
	C681.133423,778.691650 682.288574,773.670959 684.375061,768.623535 
	C687.686340,774.739380 685.930420,781.330872 684.175903,787.367493 
	C676.899231,812.403687 660.242126,828.381165 635.120544,835.127258 
	C609.101624,842.114197 583.288452,840.774170 558.280701,830.775452 
	C545.961121,825.849670 536.024536,817.537964 530.105896,805.188538 
	C528.645081,802.140625 527.700806,798.976379 528.050354,795.541504 
	C528.261597,793.465820 528.685303,791.531433 531.565918,791.023315 
	C532.443665,791.871216 532.946655,792.756653 533.681091,793.843872 
	C539.118530,797.787109 541.419556,803.996887 546.218750,808.554810 
	C547.660400,811.690918 550.635986,812.359192 552.885925,813.887451 
	C554.789673,815.180481 556.872986,816.185913 558.342041,818.530273 
	C559.574829,821.543945 561.631592,823.112000 564.291321,823.964355 
	C575.343872,827.506104 586.387268,830.877075 598.216492,830.847717 
	C609.854309,830.818848 621.456787,831.102478 632.638000,827.018860 
	C636.817627,825.492432 641.338074,824.765991 644.823730,821.046204 
	C645.132874,820.493774 645.242432,820.265930 645.481567,819.680542 
	C645.828979,818.870361 646.094360,818.447754 646.646729,817.778809 
	C650.763794,813.949829 656.302307,812.607422 659.637939,807.776489 
	C665.060425,802.740356 668.979004,796.974548 672.435486,790.911499 
	C674.009766,788.149963 675.635010,785.500793 678.247559,783.221313 
z"/>
<path fill="#FF8800" opacity="1.000000" stroke="none" 
	d="
M352.052551,707.916016 
	C360.087219,706.800537 367.493073,707.468933 373.727325,712.334656 
	C381.212585,718.176697 382.201752,726.264099 379.995453,734.874084 
	C377.831573,743.318481 371.833893,748.230347 363.567047,749.674988 
	C355.635590,751.061096 347.638916,750.333618 342.286194,743.220337 
	C336.475372,735.498352 335.152679,726.829712 339.330414,717.844299 
	C341.757385,712.624451 345.704559,708.970520 352.052551,707.916016 
z"/>
<path fill="#F7F0ED" opacity="1.000000" stroke="none" 
	d="
M477.556580,697.694458 
	C470.634796,697.645935 469.596588,696.519287 470.968506,690.115845 
	C474.236511,674.862610 477.383331,659.581055 480.695831,644.338379 
	C483.580750,631.063171 486.783295,617.790344 488.732361,604.339355 
	C490.156830,594.508606 493.134613,586.017944 501.941223,580.114746 
	C498.880005,596.267822 495.627106,612.583191 492.242340,628.871155 
	C487.500275,651.690552 482.660004,674.489502 477.556580,697.694458 
z"/>
<path fill="#F7F0ED" opacity="1.000000" stroke="none" 
	d="
M581.243591,754.628418 
	C576.656494,754.299194 575.053467,751.450684 574.995850,747.242126 
	C574.904175,740.543884 576.142578,733.984619 577.465332,727.509949 
	C581.518250,707.672363 585.965881,687.915710 590.206909,668.116150 
	C591.467102,662.233032 595.050720,658.440552 600.785522,656.073853 
	C601.174683,656.484680 601.211853,656.950684 601.116821,657.747314 
	C600.966125,658.728760 600.763733,659.322815 600.396545,660.192627 
	C599.416138,665.406738 598.469238,670.304504 597.317200,675.586792 
	C597.054932,676.399902 596.978760,676.825073 596.780518,677.554443 
	C596.223328,680.361206 595.766113,682.859619 595.160950,685.707275 
	C594.992371,686.467529 594.924072,686.870728 594.692871,687.549683 
	C594.501892,688.321045 594.432861,688.809998 594.207092,689.636597 
	C594.000732,690.747864 594.018188,691.528809 593.688110,692.553406 
	C593.513062,693.316772 593.447998,693.810547 593.208069,694.637573 
	C593.008118,695.399353 592.955139,695.824158 592.773621,696.551636 
	C592.554382,697.654541 592.431580,698.450806 592.127197,699.610657 
	C591.953857,700.400146 591.911255,700.820862 591.700439,701.532410 
	C591.185425,703.965393 590.787842,706.102417 590.203979,708.608826 
	C589.984375,709.678162 589.784119,710.329712 589.473938,711.285095 
	C589.422974,712.258057 589.346008,712.887695 589.111023,713.796387 
	C588.956970,714.480347 588.912476,714.879822 588.708008,715.555359 
	C588.197754,717.965576 587.799011,720.094360 587.226807,722.596802 
	C587.019226,723.398682 586.957520,723.822754 586.760376,724.546814 
	C586.250061,726.980713 585.843018,729.109741 585.258545,731.608154 
	C585.004639,732.678894 584.786316,733.334717 584.478760,734.298218 
	C584.428711,735.265503 584.346558,735.885925 584.122192,736.788269 
	C583.978333,737.475952 583.948853,737.879700 583.812622,738.575562 
	C583.679382,739.360535 583.620972,739.850891 583.366211,740.659790 
	C583.029297,741.744263 583.015137,742.528381 582.741699,743.565186 
	C582.558472,744.646667 582.468872,745.451538 582.187927,746.617798 
	C581.986877,747.402039 581.941101,747.821045 581.760254,748.536987 
	C581.571167,750.648804 581.481140,752.459778 581.243591,754.628418 
z"/>
<path fill="#FF6001" opacity="1.000000" stroke="none" 
	d="
M559.955994,749.542664 
	C559.892883,750.444824 559.875671,750.913452 559.714722,751.704468 
	C550.236816,753.467957 540.906494,754.935303 531.565613,756.331360 
	C529.274292,756.673889 526.948425,756.969299 524.638000,756.971985 
	C489.832367,757.012329 455.026703,757.001587 420.221008,756.994446 
	C418.724121,756.994141 417.202972,757.066956 415.735474,756.836304 
	C412.717499,756.362000 410.226929,754.800415 409.633179,751.712769 
	C409.001495,748.427734 411.448883,747.036682 414.936707,746.017822 
	C415.985992,745.825989 416.272797,745.783875 416.993713,745.801270 
	C417.998962,746.051331 418.497711,746.359375 419.176758,747.155273 
	C421.782715,750.571228 425.204193,749.637756 428.214081,749.649963 
	C455.709076,749.761597 483.204620,749.712646 510.699982,749.709106 
	C522.188293,749.707581 533.686829,749.979980 545.146912,748.943298 
	C547.559204,748.725098 550.184204,749.104187 552.616211,747.040039 
	C554.573853,745.411865 556.318542,745.547913 558.484863,746.563965 
	C559.586426,747.404663 559.963440,748.172546 559.955994,749.542664 
z"/>
<path fill="#E24502" opacity="1.000000" stroke="none" 
	d="
M602.202698,647.828369 
	C575.700012,648.160706 549.423889,648.223877 523.148071,648.348572 
	C521.390564,648.356934 519.477356,647.659668 517.550171,649.297791 
	C516.290283,647.560974 514.082581,645.705505 516.066528,643.260498 
	C517.961853,640.924683 520.530090,639.988770 523.566162,640.158264 
	C547.938354,641.519897 572.310974,641.528625 596.686768,640.189758 
	C598.129150,640.110535 599.676147,640.430298 601.051331,640.914246 
	C605.277588,642.401306 605.597900,644.153625 602.202698,647.828369 
z"/>
<path fill="#E14100" opacity="1.000000" stroke="none" 
	d="
M502.255188,574.517944 
	C474.756500,574.312622 447.526489,574.248901 419.854492,574.208252 
	C417.186462,573.524170 416.580963,571.872620 417.382111,569.921509 
	C418.524231,567.140198 420.996307,565.894897 423.822815,566.152161 
	C444.725464,568.055176 465.666992,566.479126 486.583649,566.952881 
	C490.219971,567.035278 493.848999,567.029785 497.512115,566.477539 
	C502.812317,565.678528 505.177551,568.598450 503.797516,574.107544 
	C503.322479,574.672546 502.932281,574.729004 502.255188,574.517944 
z"/>
<path fill="#E24502" opacity="1.000000" stroke="none" 
	d="
M709.219849,647.796753 
	C685.676514,648.137512 662.361328,648.230347 639.046143,648.319702 
	C635.548218,648.333069 632.050232,648.330261 628.132568,648.372498 
	C624.062683,644.947571 624.411682,642.548950 628.923889,640.924561 
	C630.292480,640.431885 631.850220,640.075745 633.277344,640.192871 
	C655.133667,641.986633 677.023865,640.536133 698.892944,640.935913 
	C701.984131,640.992493 704.995789,639.230164 708.184814,640.647156 
	C712.072632,642.374634 712.468079,644.293274 709.219849,647.796753 
z"/>
<path fill="#E9E8E8" opacity="1.000000" stroke="none" 
	d="
M418.350769,747.659546 
	C417.465973,747.421509 417.024261,747.338684 416.259888,747.153564 
	C415.801422,746.878174 415.665619,746.704956 415.351715,746.253784 
	C415.173645,745.975769 414.999786,745.941345 414.927185,745.992126 
	C415.149536,744.445190 415.444519,742.847534 415.974426,741.011230 
	C416.828064,740.841187 417.446808,740.909729 418.531006,741.014893 
	C426.132690,735.909302 434.301819,735.432800 442.716553,735.456665 
	C478.617035,735.558594 514.517944,735.502136 550.418701,735.497009 
	C554.419678,735.496399 558.411072,735.668335 562.173706,737.163391 
	C564.807129,738.209839 566.684021,740.088989 566.745728,743.109802 
	C566.806152,746.072571 565.542114,748.237671 561.965637,748.954407 
	C561.178955,748.866150 560.871216,748.791443 560.172852,748.452637 
	C557.348816,743.433655 553.385681,742.191223 548.215454,742.210510 
	C511.055115,742.349548 473.893890,742.278687 436.732971,742.290100 
	C431.139526,742.291809 425.824677,743.198853 420.946533,747.119873 
	C420.031464,747.719910 419.429871,747.847961 418.350769,747.659546 
z"/>
<path fill="#E44F11" opacity="1.000000" stroke="none" 
	d="
M538.716187,698.193481 
	C539.371887,701.440125 538.053589,702.816711 534.500183,702.785400 
	C516.553833,702.627197 498.605774,702.668762 480.267517,702.495422 
	C483.677734,696.527039 489.703522,695.272949 495.915619,695.100525 
	C505.859467,694.824524 515.816528,695.037415 525.768005,695.014832 
	C528.662537,695.008240 531.347046,695.652588 533.791626,697.235596 
	C535.194458,698.144043 536.603027,699.081360 538.716187,698.193481 
z"/>
<path fill="#E84B09" opacity="1.000000" stroke="none" 
	d="
M631.507446,766.831055 
	C627.135437,777.031128 619.009277,781.843323 608.162415,782.027710 
	C598.037964,782.199890 589.106873,779.627625 583.996826,769.387939 
	C588.069397,768.599365 591.877319,769.659668 595.656982,771.041626 
	C605.850647,774.768738 615.544617,773.630859 624.701721,767.854614 
	C626.727478,766.576721 628.731934,765.448669 631.507446,766.831055 
z"/>
<path fill="#FF660A" opacity="1.000000" stroke="none" 
	d="
M649.982910,678.063843 
	C647.113159,679.160950 644.528320,679.097412 641.958740,678.134521 
	C636.089478,675.934875 630.199280,673.790405 624.344849,671.552185 
	C622.103394,670.695251 620.175659,669.412659 620.108887,666.645325 
	C620.047974,664.123657 621.488525,662.709961 624.130005,661.861938 
	C625.048645,661.116516 625.758057,660.814270 626.969727,660.759766 
	C636.635559,661.639893 644.478027,665.108154 650.084717,673.413330 
	C650.868042,675.093872 650.876709,676.420898 649.982910,678.063843 
z"/>
<path fill="#FF660A" opacity="1.000000" stroke="none" 
	d="
M540.268555,677.722961 
	C530.542114,679.264465 522.732117,673.999207 514.234680,671.527039 
	C512.182495,670.929993 510.207794,669.585938 510.201965,666.999268 
	C510.195831,664.292480 511.862518,662.796143 514.705078,662.023071 
	C515.456177,661.605713 515.892029,661.317871 516.760315,661.028687 
	C525.446472,661.701294 533.099670,663.860413 538.923462,670.988037 
	C540.601624,673.113403 541.605408,675.049683 540.268555,677.722961 
z"/>
<path fill="#FF660A" opacity="1.000000" stroke="none" 
	d="
M441.360657,603.654663 
	C436.932281,604.927490 433.022583,604.119446 429.169708,602.145325 
	C426.071838,600.558105 422.698029,599.622742 419.250366,598.933777 
	C411.445251,597.374084 410.255920,594.484314 414.664764,588.221497 
	C415.042694,587.684631 415.288116,587.054443 415.836365,586.229919 
	C416.548828,586.038086 417.007721,586.140564 417.800171,586.398010 
	C418.377991,586.574097 418.611877,586.643311 419.195312,586.834473 
	C425.356567,587.556458 430.689758,589.358337 435.579224,592.681580 
	C439.432098,595.300232 441.568542,598.642395 441.360657,603.654663 
z"/>
<path fill="#E84B09" opacity="1.000000" stroke="none" 
	d="
M559.080078,759.016724 
	C560.710449,762.479431 558.890320,762.923523 556.001953,762.922668 
	C547.244080,762.919983 539.138916,764.788269 532.815796,771.998657 
	C528.652466,771.351624 528.468628,768.763855 529.725586,765.782043 
	C531.339905,761.952209 534.718628,760.173706 538.478516,759.148499 
	C545.190186,757.318481 551.944275,755.820251 559.080078,759.016724 
z"/>
<path fill="#F0EDEC" opacity="1.000000" stroke="none" 
	d="
M649.767944,678.434021 
	C649.451294,677.295227 649.169922,676.199707 648.824829,674.765869 
	C645.986572,663.174561 639.450073,659.302185 627.335083,661.984497 
	C626.372375,661.974731 625.754578,661.919312 624.825439,661.814941 
	C624.627808,661.501282 624.638489,661.232422 624.397949,660.817139 
	C624.144836,659.938293 624.514221,659.277466 624.812988,658.291504 
	C625.040527,658.013916 625.347717,657.885742 625.514099,657.888000 
	C633.213379,656.126953 640.488586,656.954407 647.547668,660.039978 
	C652.586792,662.242676 655.843628,665.854919 657.099060,671.333679 
	C658.438660,677.179810 657.626099,679.046448 651.556580,681.936340 
	C650.968872,681.487976 650.720154,680.977844 650.290588,680.245239 
	C649.742554,679.784180 649.478577,679.461182 649.525757,678.809387 
	C649.733826,678.564819 649.803284,678.477295 649.767944,678.434021 
z"/>
<path fill="#E9E8E8" opacity="1.000000" stroke="none" 
	d="
M517.355408,662.002502 
	C516.577454,661.997437 516.146606,661.989929 515.390259,661.971680 
	C515.257935,660.840149 515.451111,659.719421 515.836426,658.313782 
	C523.044006,655.836487 529.815491,657.544983 536.519043,659.465515 
	C542.658936,661.224548 545.526672,666.091675 546.785339,671.822266 
	C547.622986,675.635742 545.932434,678.645508 541.534424,679.893494 
	C540.900574,679.453247 540.613037,678.962830 540.149597,678.245300 
	C540.288208,675.919495 538.370605,674.710144 537.918945,672.558533 
	C533.975891,662.891113 529.902405,660.832275 517.355408,662.002502 
z"/>
<path fill="#F0EDEC" opacity="1.000000" stroke="none" 
	d="
M418.275085,588.213196 
	C417.749329,588.286743 417.569397,588.273926 417.196716,588.071167 
	C416.020935,586.548096 416.955231,585.481079 417.822266,584.158386 
	C429.347717,581.293152 441.886108,585.010132 446.862915,592.469177 
	C450.983276,598.644592 449.453400,606.102966 443.302307,607.968323 
	C442.635742,607.765991 442.491455,607.480286 442.529663,606.881836 
	C441.610199,603.162537 440.221313,599.845459 439.701569,596.193604 
	C438.987671,591.177002 434.471283,588.007568 427.965485,587.337952 
	C424.812622,587.013428 421.685944,587.273865 418.275085,588.213196 
z"/>
<path fill="#E3D6CF" opacity="1.000000" stroke="none" 
	d="
M418.246185,588.493774 
	C422.941864,582.032166 435.984467,585.658569 439.930511,590.580811 
	C441.105164,592.046082 442.331451,593.796265 441.801056,595.562561 
	C440.709106,599.198975 442.228638,602.425476 442.648682,606.227722 
	C442.228638,605.918640 441.883057,605.198486 441.355316,604.235291 
	C437.593597,593.044739 428.383209,590.416016 418.246185,588.493774 
z"/>
<path fill="#E3D6CF" opacity="1.000000" stroke="none" 
	d="
M418.114258,583.593079 
	C417.832794,585.048828 417.513794,586.139832 417.099396,587.556030 
	C416.765503,587.426575 416.526978,586.971924 416.183044,586.254761 
	C416.454254,584.685974 415.397491,583.010498 417.432556,581.923950 
	C417.872620,582.278503 417.974670,582.753418 418.114258,583.593079 
z"/>
<path fill="#F7F0ED" opacity="1.000000" stroke="none" 
	d="
M501.980652,574.653198 
	C502.364532,574.382019 502.742554,574.387756 503.407501,574.441772 
	C503.498505,575.170654 503.302612,575.851318 502.933411,576.733154 
	C502.498322,576.266235 502.236542,575.598145 501.980652,574.653198 
z"/>
<path fill="#E3D6CF" opacity="1.000000" stroke="none" 
	d="
M593.761353,692.581909 
	C592.861816,691.938110 592.991699,691.080505 593.855957,690.107300 
	C594.015137,690.763123 593.979858,691.552002 593.761353,692.581909 
z"/>
<path fill="#E3D6CF" opacity="1.000000" stroke="none" 
	d="
M582.811890,743.591064 
	C581.875305,742.936951 581.983398,742.065979 582.959229,741.099304 
	C583.105103,741.765686 583.040405,742.553040 582.811890,743.591064 
z"/>
<path fill="#E3D6CF" opacity="1.000000" stroke="none" 
	d="
M583.528931,768.831421 
	C582.649536,768.895203 582.285156,768.355835 582.582031,767.309143 
	C582.996765,767.613770 583.271240,768.084290 583.528931,768.831421 
z"/>
<path fill="#E3D6CF" opacity="1.000000" stroke="none" 
	d="
M581.812866,748.638550 
	C581.071472,748.282532 581.165161,747.723755 581.824707,747.071045 
	C581.985901,747.465881 581.975220,747.952576 581.812866,748.638550 
z"/>
<path fill="#F4EEEA" opacity="1.000000" stroke="none" 
	d="
M531.303711,775.442139 
	C531.828430,776.035156 531.867310,776.836243 531.126160,777.818481 
	C530.971741,777.248352 531.036133,776.458862 531.303711,775.442139 
z"/>
<path fill="#E3D6CF" opacity="1.000000" stroke="none" 
	d="
M583.883972,738.732422 
	C583.224976,738.390137 583.199097,737.873657 583.801147,737.196899 
	C583.996704,737.578308 584.013428,738.086487 583.883972,738.732422 
z"/>
<path fill="#E3D6CF" opacity="1.000000" stroke="none" 
	d="
M517.060913,652.308228 
	C517.910217,652.893372 517.623657,653.471008 516.638306,653.975342 
	C516.567688,653.498901 516.723389,652.998230 517.060913,652.308228 
z"/>
<path fill="#E3D6CF" opacity="1.000000" stroke="none" 
	d="
M596.841675,677.661255 
	C596.047424,677.263428 596.192932,676.694702 596.930115,676.056702 
	C597.075623,676.467468 597.039185,676.963562 596.841675,677.661255 
z"/>
<path fill="#E3D6CF" opacity="1.000000" stroke="none" 
	d="
M594.736084,687.710938 
	C594.114807,687.294189 594.189636,686.780090 594.826660,686.169678 
	C594.975647,686.567627 594.938416,687.078674 594.736084,687.710938 
z"/>
<path fill="#E3D6CF" opacity="1.000000" stroke="none" 
	d="
M592.842651,696.661743 
	C592.085388,696.288940 592.196045,695.723511 592.859863,695.065552 
	C593.024780,695.468994 593.016479,695.967041 592.842651,696.661743 
z"/>
<path fill="#E44F11" opacity="1.000000" stroke="none" 
	d="
M477.300201,698.478882 
	C477.251434,698.091736 477.586395,698.129272 477.753876,698.116577 
	C477.939850,699.206909 477.958344,700.310059 477.958527,701.831970 
	C476.111725,701.407471 477.490662,700.003906 477.300201,698.478882 
z"/>
<path fill="#E3D6CF" opacity="1.000000" stroke="none" 
	d="
M600.541992,660.365540 
	C600.427246,659.866821 600.491516,659.224670 600.770203,658.330322 
	C600.896790,658.792725 600.808899,659.507446 600.541992,660.365540 
z"/>
<path fill="#E3D6CF" opacity="1.000000" stroke="none" 
	d="
M591.750977,701.639038 
	C591.026550,701.263550 591.153198,700.711792 591.780212,700.070312 
	C591.936646,700.466064 591.927734,700.957886 591.750977,701.639038 
z"/>
<path fill="#E3D6CF" opacity="1.000000" stroke="none" 
	d="
M589.670227,711.402954 
	C589.136475,710.863586 589.149414,710.115906 589.809814,709.183228 
	C589.958618,709.711304 589.899597,710.444458 589.670227,711.402954 
z"/>
<path fill="#E3D6CF" opacity="1.000000" stroke="none" 
	d="
M588.750366,715.708801 
	C588.119263,715.328979 588.147278,714.817993 588.769897,714.189941 
	C588.936646,714.577209 588.920349,715.079041 588.750366,715.708801 
z"/>
<path fill="#E3D6CF" opacity="1.000000" stroke="none" 
	d="
M586.825806,724.657837 
	C586.072388,724.269409 586.221863,723.709412 586.880737,723.065063 
	C587.033691,723.468384 587.014099,723.966248 586.825806,724.657837 
z"/>
<path fill="#E3D6CF" opacity="1.000000" stroke="none" 
	d="
M584.694214,734.423218 
	C584.155457,733.865845 584.178650,733.110046 584.865906,732.179749 
	C585.013245,732.718872 584.945374,733.460144 584.694214,734.423218 
z"/>
<path fill="#E3D6CF" opacity="1.000000" stroke="none" 
	d="
M601.585815,655.232300 
	C601.034302,654.656494 601.185669,653.960632 601.863953,653.128784 
	C601.985657,653.652588 601.888855,654.351074 601.585815,655.232300 
z"/>
<path fill="#FF660A" opacity="1.000000" stroke="none" 
	d="
M624.814026,658.293396 
	C624.939697,658.718262 624.838867,659.422546 624.493835,660.400818 
	C624.362244,659.974121 624.474854,659.273499 624.814026,658.293396 
z"/>
<path fill="#FF660A" opacity="1.000000" stroke="none" 
	d="
M649.684570,678.828186 
	C649.893066,678.875122 650.052307,679.185425 650.160645,679.759277 
	C649.951599,679.712341 649.793457,679.401978 649.684570,678.828186 
z"/>
<path fill="#FF8800" opacity="1.000000" stroke="none" 
	d="
M711.801025,371.719604 
	C705.153870,377.020538 699.800903,377.149628 692.210571,372.827667 
	C684.343262,368.347961 679.213623,361.422089 675.202026,353.677155 
	C669.130981,341.956055 663.904846,329.876709 664.036926,316.279846 
	C664.084351,311.395905 665.429077,306.970520 670.160889,304.547516 
	C675.130493,302.002747 679.865112,302.908447 684.232971,306.131989 
	C687.196533,308.319122 689.916504,310.831726 691.921082,313.915527 
	C700.008484,326.356842 707.301636,339.258881 712.930908,353.003174 
	C715.432373,359.110779 716.810608,365.516357 711.801025,371.719604 
z"/>
<path fill="#FF8800" opacity="1.000000" stroke="none" 
	d="
M290.349396,253.192520 
	C299.157318,248.225250 305.949036,248.737976 312.174988,254.587143 
	C319.900330,261.844971 320.947571,267.435394 316.616791,276.896393 
	C312.180206,286.588531 305.922363,295.291077 301.697174,305.119354 
	C297.668182,314.491150 296.361206,324.253021 296.035309,334.279358 
	C295.793213,341.727661 296.535919,349.173248 294.420471,356.581085 
	C291.585938,366.507172 282.518463,369.366119 274.779236,369.827057 
	C268.651001,370.192017 263.122345,364.446594 261.048553,356.050140 
	C257.973175,343.598328 258.371033,330.983154 260.026764,318.394135 
	C262.550842,299.203156 268.017670,281.040802 279.037140,264.826569 
	C282.075775,260.355469 285.625519,256.492493 290.349396,253.192520 
z"/>
<path fill="#FE0018" opacity="1.000000" stroke="none" 
	d="
M410.682770,241.964478 
	C410.487000,245.325073 411.896637,248.226425 413.789642,251.094742 
	C425.088837,268.215637 431.035645,287.298920 434.007690,307.400604 
	C435.782074,319.401947 434.759613,331.656128 437.029999,343.622650 
	C437.481903,346.004608 437.525482,348.710907 440.707581,349.969482 
	C440.033905,353.225525 438.051849,355.190155 434.517151,355.039825 
	C431.011536,354.890778 429.797241,352.186096 428.866211,349.504486 
	C425.307129,339.253632 424.156342,328.463104 422.115906,317.882721 
	C418.714508,300.245361 413.242981,283.469116 403.232330,268.383484 
	C402.498657,267.277863 401.906769,266.077026 401.264832,264.911743 
	C397.417419,257.927002 398.004333,253.490753 403.554138,247.917542 
	C405.663177,245.799576 407.670959,243.551285 410.682770,241.964478 
z"/>
<path fill="#FE0019" opacity="1.000000" stroke="none" 
	d="
M197.120117,563.307495 
	C199.562576,563.449646 201.743332,564.700073 203.837677,566.727417 
	C201.107529,567.163818 199.112335,565.538330 197.120117,563.307495 
z"/>
<path fill="#FD0018" opacity="1.000000" stroke="none" 
	d="
M180.367661,555.871338 
	C182.971771,554.435120 185.139618,556.448425 187.766510,557.804199 
	C185.582916,557.360535 183.156189,556.670776 180.367661,555.871338 
z"/>
<path fill="#FD0018" opacity="1.000000" stroke="none" 
	d="
M190.104950,559.305115 
	C192.007126,559.380188 193.759674,560.399780 195.673874,561.808289 
	C195.831848,562.223206 195.756485,562.403503 195.394333,562.644165 
	C193.492477,561.666077 191.877396,560.627625 190.104950,559.305115 
z"/>
<path fill="#FE0019" opacity="1.000000" stroke="none" 
	d="
M195.414337,562.812500 
	C195.257507,562.526306 195.426346,562.368286 195.760620,562.136719 
	C196.192276,562.221558 196.477356,562.400085 196.887970,562.800598 
	C196.582687,562.988525 196.151901,562.954529 195.414337,562.812500 
z"/>
<path fill="#FD0018" opacity="1.000000" stroke="none" 
	d="
M188.130966,558.262573 
	C188.496780,558.224060 189.043152,558.427795 189.799316,558.840393 
	C189.443253,558.867798 188.877380,558.686340 188.130966,558.262573 
z"/>
<path fill="#171717" opacity="1.000000" stroke="none" 
	d="
M242.996902,623.736389 
	C242.674210,623.891785 242.275452,623.770630 241.892761,623.333252 
	C242.246170,623.164551 242.583511,623.312134 242.996902,623.736389 
z"/>
<path fill="#FD0018" opacity="1.000000" stroke="none" 
	d="
M822.219666,678.819336 
	C822.001160,678.912720 822.000244,678.454956 822.000122,678.226013 
	C822.171814,677.984009 822.343567,677.970947 822.772888,677.979248 
	C822.918213,678.312012 822.720825,678.553833 822.219666,678.819336 
z"/>
<path fill="#352E2E" opacity="1.000000" stroke="none" 
	d="
M490.687317,430.596558 
	C491.636414,441.370544 489.412292,450.878082 482.928436,459.128723 
	C473.389221,471.267151 456.870117,473.090302 444.811737,463.438354 
	C428.826782,450.643433 426.133209,424.514526 439.167877,408.689667 
	C449.374634,396.298035 466.994568,395.293884 478.933136,406.500305 
	C485.759430,412.907990 489.301453,420.998566 490.687317,430.596558 
z"/>
<path fill="#352E2E" opacity="1.000000" stroke="none" 
	d="
M629.475220,399.508118 
	C643.127991,401.881958 651.593933,412.934418 651.773132,428.701355 
	C651.894043,439.333252 648.740173,449.061768 641.945923,457.332916 
	C634.725891,466.122314 625.594116,471.486877 613.982788,468.509003 
	C602.453857,465.552216 597.252686,456.456055 595.727417,445.340332 
	C593.532959,429.348206 598.573792,415.826294 611.057861,405.415283 
	C616.192932,401.132843 622.272156,399.035980 629.475220,399.508118 
z"/>
<path fill="#F6F6F6" opacity="1.000000" stroke="none" 
	d="
M560.656982,748.279236 
	C563.226318,747.608276 564.761902,746.287720 564.893555,743.742126 
	C565.033569,741.032715 563.349915,739.427917 561.170471,738.330872 
	C559.057678,737.267273 556.750610,736.994141 554.376953,736.995422 
	C514.081238,737.016968 473.785278,737.068970 433.489929,736.940674 
	C428.204803,736.923889 424.223663,740.122620 419.246338,741.213745 
	C423.926880,734.921326 431.091827,734.163208 437.994934,734.120972 
	C475.960907,733.888245 513.929199,733.955994 551.896057,734.092041 
	C555.658020,734.105469 559.489807,735.002686 563.154114,735.990601 
	C566.690613,736.944214 568.512024,739.747131 568.939575,743.377380 
	C569.385803,747.165771 566.577087,749.020142 564.203491,751.049683 
	C562.964233,752.109192 561.733826,751.842834 560.882690,749.918701 
	C560.546326,749.264771 560.448059,748.912598 560.656982,748.279236 
z"/>
<path fill="#FD7627" opacity="1.000000" stroke="none" 
	d="
M560.588623,747.840942 
	C560.748413,748.383789 560.686768,748.729736 560.701660,749.329102 
	C560.778137,749.582458 560.348877,749.789734 560.129517,749.882935 
	C559.650269,749.407410 559.390320,748.838623 559.114624,747.951904 
	C559.235596,747.498962 559.372437,747.364075 559.792969,747.178345 
	C560.173584,747.299744 560.270386,747.471863 560.588623,747.840942 
z"/>
<path fill="#E6E2E1" opacity="1.000000" stroke="none" 
	d="
M678.205566,783.177551 
	C674.802063,792.938477 669.152954,801.465454 661.284790,808.860962 
	C648.823608,816.511536 635.635803,821.672363 621.538513,823.340576 
	C607.407898,825.012695 593.182434,825.232849 578.976013,822.181763 
	C567.340698,819.682800 556.474915,815.477051 545.463379,810.217285 
	C540.194580,805.782898 536.555542,800.655945 533.937988,794.403564 
	C538.715393,793.259277 541.720642,796.461731 544.665955,799.265137 
	C558.649292,812.575073 575.877563,817.893555 594.512146,818.845154 
	C605.725525,819.417786 617.028870,819.759521 628.216064,816.838623 
	C645.484924,812.329895 659.157837,802.804382 670.038147,788.927185 
	C672.115601,786.277466 674.163635,783.666199 678.205566,783.177551 
z"/>
<path fill="#D9D2CE" opacity="1.000000" stroke="none" 
	d="
M545.250244,810.271851 
	C553.285400,809.725830 559.788696,814.922974 567.335632,816.794983 
	C577.474487,819.309875 587.467224,821.853821 598.092529,822.176331 
	C615.166748,822.694580 631.490662,820.170105 647.312500,813.795410 
	C651.545410,812.089905 655.033264,808.305786 660.571350,808.996460 
	C657.762756,813.462280 652.818420,815.708313 648.239868,818.987671 
	C647.794678,819.338379 647.605225,819.452087 647.129333,819.732483 
	C646.842896,819.899231 646.922974,819.916016 646.905518,819.879028 
	C645.506836,821.866821 643.417603,822.969116 641.260925,823.828186 
	C632.291870,827.400696 623.191223,830.434631 613.341919,830.265259 
	C608.515991,830.182312 603.675476,830.035461 598.862183,830.296997 
	C588.033752,830.885193 577.803162,828.158020 567.586487,825.154968 
	C563.849304,824.056396 560.471252,822.387512 557.307922,819.396973 
	C553.095093,816.289124 548.795227,814.036377 545.250244,810.271851 
z"/>
<path fill="#FF701A" opacity="1.000000" stroke="none" 
	d="
M557.048096,819.437927 
	C572.213196,825.334351 587.915161,828.335999 604.513672,828.207031 
	C619.083557,828.093811 632.890381,825.778442 646.518738,819.866699 
	C646.593201,822.941223 644.323364,824.438354 641.879639,825.504517 
	C632.422668,829.630066 622.711060,832.594971 612.240234,833.062683 
	C596.679016,833.757690 581.482544,832.310303 566.740845,827.071472 
	C562.754395,825.654846 559.100769,823.817322 557.048096,819.437927 
z"/>
<path fill="#FF701A" opacity="1.000000" stroke="none" 
	d="
M647.065552,819.848389 
	C646.929199,819.547058 647.146362,819.320190 647.739258,819.221680 
	C647.809998,819.485840 647.578064,819.676819 647.065552,819.848389 
z"/>
<path fill="#D6D2D0" opacity="1.000000" stroke="none" 
	d="
M560.069824,746.772705 
	C559.908386,747.201660 559.740112,747.275757 559.335327,747.491882 
	C557.665100,747.568176 556.231384,747.502380 554.451416,747.528442 
	C547.459534,749.572388 540.587219,749.200562 533.821716,749.231384 
	C498.893982,749.390564 463.965118,749.342102 429.036865,749.258179 
	C426.124847,749.251221 422.985870,749.900757 420.200806,747.222595 
	C423.064270,740.860535 428.697754,740.076782 434.419434,740.063843 
	C472.029144,739.978760 509.639130,740.019409 547.249023,740.020386 
	C549.412354,740.020447 551.575989,740.014771 553.739014,740.043030 
	C557.923523,740.097656 560.391785,741.875793 560.069824,746.772705 
z"/>
<path fill="#FD7627" opacity="1.000000" stroke="none" 
	d="
M419.610992,746.890991 
	C421.943024,746.900391 423.927277,747.122131 425.911652,747.123108 
	C466.347076,747.142456 506.782471,747.134094 547.217896,747.142700 
	C549.212219,747.143127 551.206543,747.246399 553.652954,747.460938 
	C553.360718,749.431396 551.812561,749.841064 550.069885,750.027100 
	C544.294983,750.643433 538.527649,751.835693 532.752808,751.863708 
	C496.765778,752.038086 460.777466,751.969299 424.789612,751.932739 
	C421.947083,751.929871 418.403473,752.849060 417.933990,747.873047 
	C418.359558,747.336426 418.811401,747.168457 419.610992,746.890991 
z"/>
<path fill="#D6D2D0" opacity="1.000000" stroke="none" 
	d="
M415.144714,746.250488 
	C415.403748,746.168091 415.601013,746.389587 415.851349,746.845825 
	C415.663422,746.875977 415.389618,746.700562 415.144714,746.250488 
z"/>
<path fill="#E3D6CF" opacity="1.000000" stroke="none" 
	d="
M627.298401,662.238037 
	C631.071838,658.312927 638.074341,658.043518 643.519714,661.394287 
	C649.194763,664.886536 650.508667,667.821350 648.878479,674.027161 
	C643.522339,667.232910 636.036926,664.005249 627.298401,662.238037 
z"/>
<path fill="#E3D6CF" opacity="1.000000" stroke="none" 
	d="
M517.321777,662.203003 
	C522.699585,658.558105 528.607788,659.607483 534.200256,661.838684 
	C538.324524,663.484009 539.091370,667.303894 537.929932,671.829468 
	C532.185425,666.788757 525.355469,663.675049 517.321777,662.203003 
z"/>
</svg>